<?xml version="1.0" encoding="UTF-8"?>
<svg id="Layer_1" data-name="Layer 1" xmlns="http://www.w3.org/2000/svg" fill="#fff" viewBox="0 0 1521.44 199.47">
  <defs>
    <style>
      .cls-1 {
        fill: #fff;
      }
    </style>
  </defs>
  <path class="cls-1" d="M206.17,130.88c0,41.02-34.67,57.86-97.66,57.86-67.63,0-96.19-21.73-96.19-59.08H63.84c0,19.04,23.93,24.66,48.1,24.66,26.37,0,41.02-5.37,41.02-16.85,0-14.16-21.24-13.43-67.87-21.48-42.97-7.32-68.6-15.87-68.6-50.29S44.07,10.76,105.59,10.76c67.63,0,89.6,24.9,89.6,55.66h-49.8c0-11.47-13.67-21.24-40.28-21.24-29.05,0-40.28,6.1-40.28,16.85,0,14.4,26.12,15.38,55.18,19.04,43.21,5.86,86.18,6.84,86.18,49.8Z"/>
  <path class="cls-1" d="M904.37,14.43V185.32h-52l-86.67-113.77v113.77h-48.58V14.43h52l86.67,113.77V14.43h48.58Z"/>
  <path class="cls-1" d="M1120.92,14.43V185.32h-52l-86.67-113.77v113.77h-48.58V14.43h52l86.67,113.77V14.43h48.58Z"/>
  <path class="cls-1" d="M1198.79,49.09v35.64h103.76v34.67h-103.76v65.92h-48.58V14.43h159.42V49.09h-110.84Z"/>
  <path class="cls-1" d="M1509.11,49.09h-64.7V185.32h-48.58V49.09h-64.7V14.43h177.98V49.09Z"/>
  <path class="cls-1" d="M626.9,184.39H292.18c-32.39,0-58.74-26.35-58.74-58.74v-51.54c0-32.39,26.35-58.74,58.74-58.74h334.72c32.39,0,58.74,26.35,58.74,58.74v51.54c0,32.39-26.35,58.74-58.74,58.74ZM292.18,43.85c-16.69,0-30.26,13.58-30.26,30.26v51.54c0,16.69,13.58,30.26,30.26,30.26h334.72c16.69,0,30.26-13.58,30.26-30.26v-51.54c0-16.69-13.58-30.26-30.26-30.26H292.18Z"/>
  <rect class="cls-1" x="279.04" y="58.98" width="257.48" height="81.8" rx="24.19" ry="24.19"/>
</svg>