<?xml version="1.0" encoding="utf-8"?>
<!-- Generator: Adobe Illustrator 26.5.0, SVG Export Plug-In . SVG Version: 6.00 Build 0)  -->
<svg version="1.1" id="Layer_1" xmlns="http://www.w3.org/2000/svg" xmlns:xlink="http://www.w3.org/1999/xlink" x="0px" y="0px"
	 viewBox="0 0 1080 450" style="enable-background:new 0 0 1080 450;" xml:space="preserve">
<style type="text/css">
	.st0{fill:#fff;}
</style>
<g>
	<path class="st0" d="M197.54,244.22c0,25.33-21.41,35.73-60.31,35.73c-41.76,0-59.4-13.42-59.4-36.49h31.81
		c0,11.76,14.78,15.23,29.7,15.23c16.28,0,25.33-3.32,25.33-10.4c0-8.74-13.12-8.29-41.91-13.27c-26.54-4.52-42.37-9.8-42.37-31.06
		c0-21.41,17.04-33.92,55.03-33.92c41.76,0,55.33,15.38,55.33,34.38H160c0-7.09-8.44-13.12-24.88-13.12
		c-17.94,0-24.88,3.77-24.88,10.4c0,8.9,16.13,9.5,34.07,11.76C171,217.08,197.54,217.69,197.54,244.22z"/>
	<path class="st0" d="M628.71,172.31v105.54H596.6l-53.52-70.26v70.26h-30V172.31h32.11l53.52,70.26v-70.26H628.71z"/>
	<path class="st0" d="M762.44,172.31v105.54h-32.11l-53.52-70.26v70.26h-30V172.31h32.11l53.52,70.26v-70.26H762.44z"/>
	<path class="st0" d="M810.53,193.72v22.01h64.08v21.41h-64.08v40.71h-30V172.31h98.45v21.41H810.53z"/>
	<path class="st0" d="M1002.17,193.72h-39.95v84.13h-30v-84.13h-39.95v-21.41h109.91V193.72z"/>
	<path class="st0" d="M457.36,277.26H250.65c-20,0-36.28-16.27-36.28-36.28v-31.83c0-20,16.27-36.28,36.28-36.28h206.71
		c20,0,36.28,16.27,36.28,36.28v31.83C493.64,260.99,477.36,277.26,457.36,277.26z M250.65,190.47c-10.3,0-18.69,8.38-18.69,18.69
		v31.83c0,10.3,8.38,18.69,18.69,18.69h206.71c10.3,0,18.69-8.38,18.69-18.69v-31.83c0-10.3-8.38-18.69-18.69-18.69H250.65z"/>
	<g>
		<path class="st0" d="M386.61,199.82H257.48c-8.25,0-14.94,6.69-14.94,14.94v20.64c0,8.25,6.69,14.94,14.94,14.94h129.13
			c8.25,0,14.94-6.69,14.94-14.94v-20.64C401.55,206.51,394.86,199.82,386.61,199.82z"/>
	</g>
</g>
</svg>
