<?xml version="1.0" encoding="utf-8"?>
<!-- Generator: Adobe Illustrator 26.5.0, SVG Export Plug-In . SVG Version: 6.00 Build 0)  -->
<svg version="1.1" id="Layer_1" xmlns="http://www.w3.org/2000/svg" xmlns:xlink="http://www.w3.org/1999/xlink" x="0px" y="0px"
	 viewBox="0 0 1080 450" style="enable-background:new 0 0 1080 450;" xml:space="preserve">
<style type="text/css">
	.st0{fill:#fff;}
</style>
<g>
	<path class="st0" d="M707.36,309.51H372.64c-32.39,0-58.74-26.35-58.74-58.74v-51.54c0-32.39,26.35-58.74,58.74-58.74h334.72
		c32.39,0,58.74,26.35,58.74,58.74v51.54C766.1,283.16,739.75,309.51,707.36,309.51z M372.64,168.97
		c-16.69,0-30.26,13.58-30.26,30.26v51.54c0,16.69,13.58,30.26,30.26,30.26h334.72c16.69,0,30.26-13.58,30.26-30.26v-51.54
		c0-16.69-13.58-30.26-30.26-30.26H372.64z"/>
	<g>
		<path class="st0" d="M592.79,184.1h-209.1c-13.36,0-24.19,10.83-24.19,24.19v33.42c0,13.36,10.83,24.19,24.19,24.19h209.1
			c13.36,0,24.19-10.83,24.19-24.19v-33.42C616.98,194.93,606.15,184.1,592.79,184.1z"/>
	</g>
</g>
</svg>
